<svg width="20" height="20" viewBox="0 0 20 20" fill="none" xmlns="http://www.w3.org/2000/svg" class="xoE8od"><path fill-rule="evenodd" clip-rule="evenodd" d="M0.418367 12.9162C1.66721 17.0167 5.48131 20 9.99273 20C15.519 20 19.9991 15.5227 19.9991 10C19.9991 4.47717 15.519 0 9.99273 0C4.68969 0 0.350521 4.12266 0.0078125 9.33562C0.00951544 9.33848 0.0112156 9.34134 0.0129131 9.34419C0.0129732 9.34314 0.0130163 9.3424 0.0130408 9.34198L0.0130648 9.34156L5.3898 11.5536C5.53608 11.4574 5.69197 11.3742 5.85834 11.3064C6.23575 11.151 6.63377 11.0815 7.03042 11.0995L9.47902 7.54482C9.47817 7.52905 9.47817 7.51224 9.47817 7.49544V7.49538C9.47817 5.39753 11.1831 3.69092 13.2789 3.69092C15.3755 3.69092 17.0796 5.39753 17.0796 7.49538C17.0796 9.59306 15.3755 11.3012 13.2789 11.3012C13.2505 11.3012 13.2213 11.3004 13.193 11.2995L9.68946 13.8016C9.69977 14.1879 9.62848 14.575 9.47559 14.9441C8.88809 16.3562 7.25967 17.0283 5.84735 16.4386C4.98414 16.0789 4.39904 15.3313 4.20819 14.4789L0.418367 12.9162ZM6.09114 15.8531C7.18162 16.3072 8.43616 15.7896 8.89087 14.6986C9.11075 14.1716 9.11161 13.5879 8.8943 13.0591C8.677 12.5303 8.26695 12.1166 7.73846 11.8969C7.21426 11.6788 6.65322 11.6857 6.15968 11.8728L7.4387 12.4025C8.24247 12.7372 8.62289 13.6608 8.28756 14.4651C7.95327 15.2685 7.03062 15.6497 6.22642 15.3149L4.98915 14.8025C5.20826 15.26 5.58807 15.6437 6.09114 15.8531ZM10.7465 7.49507C10.7465 8.89318 11.8829 10.0305 13.2786 10.0305C14.6752 10.0305 15.8116 8.89318 15.8116 7.49507C15.8116 6.09808 14.6752 4.96039 13.2786 4.96039C11.8829 4.96039 10.7465 6.09808 10.7465 7.49507ZM13.2829 5.58648C12.2333 5.58648 11.3813 6.43953 11.3813 7.49129C11.3813 8.54313 12.2333 9.39541 13.2829 9.39541C14.3334 9.39541 15.1854 8.54313 15.1854 7.49129C15.1854 6.43953 14.3334 5.58648 13.2829 5.58648Z" fill="white"></path></svg>